<svg xmlns="http://www.w3.org/2000/svg" viewBox="0 0 45.35 45.35"><defs><style>.cls-1{fill:#94ca0b;}.cls-2{fill:#fff;}.cls-2,.cls-3{fill-rule:evenodd;}.cls-3{fill:#006344;}</style></defs><g id="Layer_2" data-name="Layer 2"><g id="Слой_1" data-name="Слой 1"><circle class="cls-1" cx="22.68" cy="22.68" r="22.68" transform="translate(-6.88 35.12) rotate(-67.82)"/><path class="cls-2" d="M26.9,14.39a9.5,9.5,0,0,0-4.7-1.08,10.13,10.13,0,0,0-7.3,3.17,9,9,0,0,0-2.56,4.26,8.48,8.48,0,0,0,.42,4.91l3-3,3.66,3.66L13,32.79,12,33.7l0,0L1.68,23.4l3.66-3.66L7,21.36a13,13,0,0,1,.41-2.31,14.6,14.6,0,0,1,4-6.49,16.4,16.4,0,0,1,7.09-4.32,14.44,14.44,0,0,1,7.93,0A15.57,15.57,0,0,1,31,10.33Z"/><path class="cls-3" d="M18.5,31.68a9.66,9.66,0,0,0,4.66,1.06,10.24,10.24,0,0,0,7.3-3.17A9.11,9.11,0,0,0,33,25.3a8.41,8.41,0,0,0-.43-4.91l-5.94,5.95L23,22.68l9.43-9.43.9-.9,0,0L43.68,22.64,40,26.31l-1.62-1.63A12.94,12.94,0,0,1,38,27a14.66,14.66,0,0,1-4,6.48,16.24,16.24,0,0,1-7.1,4.32,14.44,14.44,0,0,1-7.93,0,15.5,15.5,0,0,1-4.56-2.08Z"/></g></g></svg>