<svg xmlns="http://www.w3.org/2000/svg" viewBox="0 0 368.1 88.56"><defs><style>.cls-1{fill:#94ca0b;}.cls-1,.cls-2,.cls-5,.cls-6{fill-rule:evenodd;}.cls-2{fill:#364958;}.cls-3{font-size:12.18px;fill:#b5d3d3;font-family:CenturyGothic-Bold, Century Gothic;font-weight:700;}.cls-4{letter-spacing:0.51em;}.cls-5{fill:#fff;}.cls-6{fill:#006344;}</style></defs><g id="Layer_2" data-name="Layer 2"><g id="Слой_1" data-name="Слой 1"><path class="cls-1" d="M212.75,0h27.61a13.84,13.84,0,0,1,13.81,13.81V41.42a41.55,41.55,0,0,1-41.42,41.43H171.32V41.42A41.55,41.55,0,0,1,212.75,0Z"/><path class="cls-2" d="M54.77,46.52H12.7a14.23,14.23,0,0,0,4.85,8.91,15.15,15.15,0,0,0,10.06,3.29,17.32,17.32,0,0,0,12.58-5.16l11,5.2a26.16,26.16,0,0,1-9.86,8.67,30.71,30.71,0,0,1-13.65,2.81q-12.26,0-20-7.74A26.36,26.36,0,0,1,0,43.13Q0,31.19,7.71,23.31A25.81,25.81,0,0,1,27,15.42q12.33,0,20.06,7.86c5.16,5.25,7.73,12.15,7.73,20.76l0,2.48Zm-13-10.24a13,13,0,0,0-5.12-7,15.16,15.16,0,0,0-8.89-2.67,15.9,15.9,0,0,0-9.63,3c-1.72,1.24-3.33,3.46-4.8,6.62Zm69.64-9-10.91,6a18.48,18.48,0,0,0-6.06-4.46,18.14,18.14,0,0,0-7-1.25Q80,27.62,75.47,32a14.82,14.82,0,0,0-4.55,11.2A14.37,14.37,0,0,0,75.29,54c2.92,2.81,6.74,4.2,11.48,4.2q8.78,0,13.69-6l10.32,7.09q-8.41,10.92-23.73,10.92-13.81,0-21.61-8.15a27,27,0,0,1,6.6-43,31.62,31.62,0,0,1,15.2-3.64,30.85,30.85,0,0,1,14,3.1,26.51,26.51,0,0,1,10.13,8.81ZM137.6,15.42a26.36,26.36,0,0,0-18.15,7.09,26.33,26.33,0,0,0-9,20.37,26.47,26.47,0,0,0,8,19.39,26.18,26.18,0,0,0,19.23,8,27.73,27.73,0,0,0,14-3.63,26.49,26.49,0,0,0,10-10,27.33,27.33,0,0,0,3.68-13.8,26.85,26.85,0,0,0-3.66-13.66,26.57,26.57,0,0,0-10.19-10,27.81,27.81,0,0,0-13.92-3.69Zm.19,12.3a13.6,13.6,0,0,1,10.27,4.19,15.09,15.09,0,0,1,4,10.9,15.19,15.19,0,0,1-4.08,11A13.68,13.68,0,0,1,137.74,58a13.45,13.45,0,0,1-10.18-4.22c-2.68-2.8-4-6.48-4-11A15.08,15.08,0,0,1,127.61,32,13.51,13.51,0,0,1,137.79,27.72Z"/><path class="cls-1" d="M315.94,47H273.28a14.36,14.36,0,0,0,4.92,9,15.35,15.35,0,0,0,10.19,3.35,17.57,17.57,0,0,0,12.76-5.24l11.14,5.27a26.57,26.57,0,0,1-10,8.8A31.36,31.36,0,0,1,288.46,71Q276,71,268.22,63.15a26.71,26.71,0,0,1-7.82-19.64q0-12.1,7.82-20.09a26.21,26.21,0,0,1,19.59-8q12.49,0,20.34,8c5.22,5.32,7.83,12.32,7.83,21l0,2.51ZM302.71,36.57a13.14,13.14,0,0,0-5.18-7.06,15.28,15.28,0,0,0-9-2.71,16.08,16.08,0,0,0-9.76,3.06c-1.75,1.26-3.38,3.5-4.87,6.71ZM320,16.72h13.27v5.45a32.21,32.21,0,0,1,8.2-5.27A20.11,20.11,0,0,1,349,15.42a18.25,18.25,0,0,1,13.39,5.49q4.61,4.68,4.62,13.82v35H353.79V46.54q0-9.48-.85-12.58a8.63,8.63,0,0,0-3-4.74,8.36,8.36,0,0,0-5.22-1.63,9.81,9.81,0,0,0-6.94,2.7,14.32,14.32,0,0,0-4,7.45q-.58,2.49-.59,10.74V69.7H320Z"/><text class="cls-3" transform="translate(250.85 84.83)"><tspan class="cls-4">RECYCLIN</tspan><tspan x="107.03" y="0">G</tspan></text><path class="cls-5" d="M219.91,26.28a17.67,17.67,0,0,0-8.6-2A18.64,18.64,0,0,0,198,30.1a16.51,16.51,0,0,0-4.68,7.79,15.56,15.56,0,0,0,.77,9l5.41-5.41,6.69,6.69L194.41,59.9l-1.65,1.65-.06.07L173.83,42.75l6.69-6.69,3,3a24.33,24.33,0,0,1,.74-4.23,26.82,26.82,0,0,1,7.22-11.85,30,30,0,0,1,13-7.89,26.39,26.39,0,0,1,14.48,0,28.58,28.58,0,0,1,8.43,3.85Z"/><path class="cls-6" d="M204.56,57.88a17.63,17.63,0,0,0,8.5,1.92A18.64,18.64,0,0,0,226.4,54a16.66,16.66,0,0,0,4.68-7.8,15.46,15.46,0,0,0-.78-9L219.44,48.11l-6.69-6.69L230,24.21l1.66-1.65.06-.07,18.87,18.87-6.69,6.69-3-3a23.44,23.44,0,0,1-.75,4.23,26.71,26.71,0,0,1-7.21,11.84,29.91,29.91,0,0,1-13,7.9,26.52,26.52,0,0,1-14.49,0,28.83,28.83,0,0,1-8.34-3.79Z"/></g></g></svg>